PathFileType	4	(X/Y/Z)	\\147.46.242.158\로컬 디스크 (e)\MOCAP Data\Iguana Capture\iguana\Project 2\Capture day 7\Session 2\Take14.trc
DataRate	CameraRate	NumFrames	NumMarkers	Units	OrigDataRate	OrigDataStartFrame	OrigNumFrames
120.0	120.0	13	23	mm	120.0	162	5026
Frame#	Time	ana:head1			ana:head2			ana:bone1			ana:bone2			ana:bone3			ana:tail1			ana:tail2			ana:tail3			ana:tail4			ana:Rforefoot1			ana:Rforefoot2			ana:Rforefoot3			ana:Lforefoot1			ana:Lforefoot2			ana:Lforefoot3			ana:RhindLeg1			ana:RhindLeg2			ana:RhindLeg3			ana:RhindLeg4			ana:LhindLeg1			ana:LhindLeg2			ana:LhindLeg3			ana:LhindLeg4			
		X1	Y1	Z1	X2	Y2	Z2	X3	Y3	Z3	X4	Y4	Z4	X5	Y5	Z5	X6	Y6	Z6	X7	Y7	Z7	X8	Y8	Z8	X9	Y9	Z9	X10	Y10	Z10	X11	Y11	Z11	X12	Y12	Z12	X13	Y13	Z13	X14	Y14	Z14	X15	Y15	Z15	X16	Y16	Z16	X17	Y17	Z17	X18	Y18	Z18	X19	Y19	Z19	X20	Y20	Z20	X21	Y21	Z21	X22	Y22	Z22	X23	Y23	Z23	

2912	24.258	561.70050	177.90593	44.06700	550.87537	177.92543	44.86772	528.81329	178.07474	39.38338	500.01019	180.00815	38.76459	466.95898	177.82027	33.81535	435.39047	171.14334	25.20290	399.63324	170.58711	13.75698	359.39996	177.89211	6.30787	319.54016	191.43263	4.86269	524.19257	166.95789	20.53906	509.54379	161.38724	17.49114	500.49207	164.99142	7.92339	534.86444	189.95537	23.39342	536.89642	200.69177	16.02222	547.56488	199.03493	1.51081	469.29971	167.99110	26.55421	483.12982	156.09230	19.28073	475.54166	150.62016	1.43828	486.74313	152.05516	2.16597	461.63379	185.70924	27.21122	448.17841	197.75822	22.39017	426.61688	200.20399	16.68320	427.81281	206.60596	8.09048	
2913	24.267	563.97632	177.88091	44.26670	553.03931	177.91779	44.96216	530.98883	177.66849	39.47361	502.17859	179.10883	38.87975	469.00467	177.13690	34.10603	437.37537	170.98106	25.55562	401.58499	170.32103	14.05598	361.35236	177.41649	6.37389	321.55573	191.06595	4.83727	526.64874	166.57278	20.58364	512.03748	160.92538	17.70903	501.80753	166.08664	6.81744	536.50610	189.84219	23.56722	537.66663	200.81816	16.24991	547.61823	199.08290	1.45859	471.10519	167.22322	26.66722	484.32654	154.96765	18.58655	475.49536	150.65894	1.49026	486.75552	151.97441	2.04136	463.93115	185.13719	27.61429	450.67563	197.50810	23.02626	428.99045	200.47624	17.61423	428.91580	206.46179	8.53895	
2914	24.275	566.21393	177.82298	44.41726	555.18109	177.88437	45.03600	533.15210	177.28903	39.57879	504.35590	178.23772	39.04664	470.94809	176.47519	34.37253	439.33859	170.91978	25.91072	403.52414	170.15775	14.38615	363.27142	177.01982	6.46667	323.52194	190.71393	4.80970	529.11292	166.15338	20.74854	514.56757	160.31898	18.12714	503.37170	166.34453	6.02461	538.07935	189.73174	23.70433	538.34546	200.87967	16.47409	547.66858	199.10881	1.41377	472.82529	166.45467	26.75167	485.42285	153.86957	17.85614	475.41562	150.79865	1.58149	486.74454	151.84550	1.94510	466.22003	184.61824	28.04780	453.21335	197.35439	23.64817	431.45877	200.67671	18.43449	430.29062	206.31046	9.07022	
2915	24.283	568.37909	177.76115	44.55167	557.29504	177.82639	45.12378	535.30170	176.96814	39.70698	506.50650	177.42393	39.24250	472.89691	175.86116	34.62038	441.28680	171.02013	26.27483	405.41269	170.17548	14.72162	365.13849	176.74852	6.59340	325.40283	190.38676	4.79650	531.63092	165.76498	21.05228	517.18872	159.56050	18.80226	505.31204	165.48120	5.74225	539.58893	189.64325	23.80040	539.07629	200.90282	16.78867	547.69885	199.12564	1.35812	474.49518	165.74959	26.78951	486.29599	152.71335	17.36517	475.34384	150.80783	1.69166	486.67126	151.74823	1.86000	468.45911	184.12659	28.43729	455.79028	197.30006	24.21815	434.03949	200.79483	19.11326	431.90469	206.12491	9.61214	
2916	24.292	570.46576	177.71178	44.65210	559.39099	177.76700	45.24943	537.40717	176.71950	39.83521	508.64285	176.68513	39.42434	474.86591	175.35858	34.84066	443.18564	171.28644	26.59928	407.28262	170.41542	15.05450	366.95465	176.65746	6.71715	327.18216	190.07292	4.76308	534.19983	165.45586	21.47659	519.90576	158.73997	19.71513	507.71924	164.20511	5.62552	541.03546	189.57545	23.89210	539.72827	200.87961	17.02708	547.70911	199.12410	1.30284	476.12494	165.13307	26.78752	486.87299	151.43367	17.05261	475.31436	150.66837	1.80910	486.55878	151.67534	1.78916	470.65765	183.72351	28.75353	458.42023	197.33614	24.72410	436.68387	200.74254	19.65815	433.75021	205.91292	10.24224	
2917	24.300	572.47070	177.68463	44.75129	561.44659	177.73778	45.40839	539.47583	176.54367	39.99638	510.73596	176.03294	39.57339	476.81329	174.94475	34.99210	445.06708	171.71754	26.87247	409.11493	170.90524	15.33535	368.73093	176.75777	6.84352	328.85892	189.79091	4.71576	536.84369	165.25583	21.97746	522.74078	157.92601	20.71623	510.70868	162.57664	5.67523	542.44678	189.54720	23.99377	540.40399	200.84053	17.30311	547.68011	199.13039	1.24980	477.78616	164.60170	26.84145	487.13446	150.07841	16.95304	475.36609	150.30070	1.92088	486.41153	151.65094	1.71016	472.86359	183.42805	28.95951	461.12216	197.49913	25.18116	439.40952	200.43929	20.07944	435.84720	205.59428	10.84502	
2918	24.308	574.41162	177.72496	44.88050	563.42352	177.76706	45.57795	541.46576	176.46413	40.18315	512.77148	175.46823	39.66213	478.77396	174.60945	35.09294	446.92053	172.29413	27.06797	410.92065	171.62119	15.56799	370.49002	177.02226	6.96826	330.46912	189.55751	4.68528	539.42163	165.26314	22.43693	525.79706	157.12955	21.90013	514.42584	160.56427	5.93501	543.82288	189.54672	24.09082	541.09735	200.77997	17.59071	547.71936	199.16420	1.28121	479.42276	164.22472	26.85331	487.15833	148.75938	16.97113	475.44064	149.83862	2.01059	486.26910	151.67000	1.63330	475.05417	183.24042	29.08189	463.94351	197.69510	25.57900	442.27432	199.92882	20.40382	438.18549	205.17680	11.34102	
2919	24.317	576.32495	177.83546	45.00958	565.34003	177.88266	45.73503	543.38141	176.44728	40.35812	514.72693	174.98225	39.69881	480.69025	174.38159	35.11333	448.76221	173.01643	27.16612	412.72983	172.49388	15.73870	372.24020	177.38672	7.06948	332.05875	189.38675	4.66233	542.06134	165.38971	22.90557	529.04224	156.42363	23.09072	518.90521	158.16563	6.40924	545.17572	189.59810	24.16743	541.76807	200.71066	17.82667	547.83203	199.21492	1.39346	481.04266	163.96330	26.84387	487.11469	147.51355	16.99333	475.54156	149.35104	2.03651	486.13443	151.77530	1.54453	477.27756	183.14720	29.13511	466.91751	197.97528	25.92498	445.34418	199.25018	20.65143	440.89087	204.71843	11.82664	
2920	24.325	578.20575	178.02969	45.15932	567.19482	178.07425	45.85713	545.26831	176.50227	40.51729	516.62128	174.57637	39.68627	482.58389	174.22476	35.07727	450.61719	173.82344	27.16671	414.54251	173.43222	15.84971	374.00623	177.76645	7.14286	333.66312	189.25368	4.64473	544.77466	165.64482	23.37964	532.49091	155.79266	24.28707	524.12622	155.53780	7.07942	546.51135	189.69252	24.24425	542.39722	200.62564	17.99945	548.03503	199.28532	1.59406	482.57047	163.81978	26.77291	487.14169	146.58218	16.87519	475.59445	149.04793	2.07359	486.02829	151.91719	1.46300	479.53464	183.14296	29.09413	470.15411	198.35384	26.27551	448.72781	198.48967	20.78483	444.09180	204.41699	12.35667	
2921	24.333	580.07782	178.31761	45.28812	568.99347	178.37122	45.91861	547.11462	176.63519	40.58416	518.46033	174.24385	39.62151	484.50790	174.14861	34.99583	452.49484	174.69336	27.11450	416.36826	174.37575	15.90501	375.79044	178.10237	7.19125	335.31555	189.14749	4.63009	547.56079	165.97162	23.84604	536.10858	155.23253	25.47010	530.03455	152.89603	7.92810	547.85693	189.83856	24.31659	543.01208	200.55185	18.14218	548.28046	199.36855	1.83090	484.08063	163.75417	26.62800	487.35233	146.00699	16.55204	475.59088	148.96375	2.12117	485.99838	152.11005	1.40378	481.79959	183.16940	28.99963	473.66483	198.78575	26.61819	452.47342	197.90868	20.75979	447.84067	204.38446	12.89929	
2922	24.342	581.92651	178.66176	45.39144	570.75500	178.75668	45.90250	549.00244	176.82359	40.62276	520.28729	173.97388	39.51065	486.46970	174.13731	34.86446	454.36578	175.54060	26.94969	418.22986	175.26222	15.91077	377.60934	178.37364	7.21718	337.01089	189.00342	4.62137	550.40009	166.35120	24.34164	539.80688	154.78773	26.51632	536.56085	150.51355	8.97470	549.20215	190.02950	24.37729	543.62622	200.49814	18.28346	548.46960	199.46661	1.99116	485.57068	163.70274	26.46118	487.75522	145.71971	16.06571	475.53180	149.12068	2.19472	486.02753	152.26688	1.39249	484.12415	183.24638	28.87417	477.47266	199.24838	26.98203	456.51346	197.58905	20.57396	452.20612	204.82190	13.49074	
2923	24.350	583.74469	179.04343	45.46801	572.51459	179.19890	45.88805	550.90753	177.07954	40.60720	522.11041	173.74471	39.37353	488.43396	174.15720	34.70650	456.27725	176.45703	26.82104	420.09091	176.07295	15.88711	379.45313	178.59818	7.25405	338.76813	188.85712	4.64821	553.23584	166.76994	24.82225	543.53119	154.48061	27.38234	543.54144	148.67476	10.20150	550.55231	190.26460	24.43340	544.27209	200.47232	18.46418	548.60199	199.54886	2.06720	487.05258	163.69316	26.23276	488.23984	145.57864	15.63724	475.46249	149.33276	2.24585	486.13593	152.41159	1.36754	486.45618	183.34196	28.69481	481.55463	199.61481	27.34644	460.92297	197.70638	20.28585	457.22314	205.78770	14.12675	
2924	24.358	585.53406	179.46881	45.50882	574.27069	179.66768	45.88100	552.77850	177.34358	40.51947	523.95715	173.55177	39.21176	490.38867	174.19850	34.52736	458.24750	177.34070	26.69318	421.99854	176.84109	15.86826	381.32974	178.82669	7.28107	340.57001	188.69971	4.65102	555.92365	167.24402	25.18276	547.26135	154.32405	27.92743	550.80115	147.61635	11.57740	551.88654	190.53134	24.48468	544.96539	200.45091	18.66764	548.66132	199.61171	2.06290	488.53723	163.71672	25.97813	488.72699	145.48831	15.28463	475.40646	149.54773	2.33290	486.35172	152.46785	1.36505	488.81589	183.44470	28.54028	485.84525	199.79939	27.68088	465.63727	198.36771	19.94796	462.91074	207.23157	14.79313	
